<?xml version="1.0" encoding="UTF-8" standalone="no"?>
<!-- Created with Inkscape (http://www.inkscape.org/) -->

<svg
   xmlns:dc="http://purl.org/dc/elements/1.1/"
   xmlns:cc="http://creativecommons.org/ns#"
   xmlns:rdf="http://www.w3.org/1999/02/22-rdf-syntax-ns#"
   xmlns:svg="http://www.w3.org/2000/svg"
   xmlns="http://www.w3.org/2000/svg"
   xmlns:sodipodi="http://sodipodi.sourceforge.net/DTD/sodipodi-0.dtd"
   xmlns:inkscape="http://www.inkscape.org/namespaces/inkscape"
   version="1.0"
   width="200"
   height="200"
   id="svg4502"
   style="display: inline;"
   inkscape:version="0.48.2 r9819"
   sodipodi:docname="1.svg">
  <metadata
     id="metadata20">
    <rdf:RDF>
      <cc:Work
         rdf:about="">
        <dc:format>image/svg+xml</dc:format>
        <dc:type
           rdf:resource="http://purl.org/dc/dcmitype/StillImage" />
      </cc:Work>
    </rdf:RDF>
  </metadata>
  <sodipodi:namedview
     pagecolor="#ffffff"
     bordercolor="#666666"
     borderopacity="1"
     objecttolerance="10"
     gridtolerance="10"
     guidetolerance="10"
     inkscape:pageopacity="0"
     inkscape:pageshadow="2"
     inkscape:window-width="1280"
     inkscape:window-height="744"
     id="namedview18"
     showgrid="false"
     inkscape:zoom="2.335529"
     inkscape:cx="171.20693"
     inkscape:cy="84.079867"
     inkscape:window-x="0"
     inkscape:window-y="26"
     inkscape:window-maximized="1"
     inkscape:current-layer="terron"
     inkscape:snap-grids="false"
     inkscape:object-paths="true"
     inkscape:snap-nodes="false" />
  <defs
     id="defs4504">
    <inkscape:perspective
       sodipodi:type="inkscape:persp3d"
       inkscape:vp_x="0 : 100 : 1"
       inkscape:vp_y="0 : 1000 : 0"
       inkscape:vp_z="200 : 100 : 1"
       inkscape:persp3d-origin="100 : 66.666667 : 1"
       id="perspective22" />
  </defs>
  <g
     transform="translate(-5.27302, 147.234)"
     id="terron"
     style="display: inline;">
    <path
       inkscape:connector-curvature="0"
       style="fill:#2b0000;fill-opacity:1"
       id="pelo_oscuro"
       d="m 50.893626,-122.95466 c 9.253478,-13.608 38.273509,-13.70747 43.525595,2.72772 1.762566,5.52431 1.624594,17.40692 -5.430125,20.62816 -2.479168,1.132405 -3.338195,-1.24718 -4.531041,-3.55025 -2.857496,-5.51282 -8.358837,-9.83969 -14.817131,-12.11598 -3.280332,-1.16301 -6.57847,-1.64887 -10.121404,-1.66418 -2.1676,-0.0152 -9.133297,1.09798 -9.54278,-1.91284 -0.320476,-2.33368 0.916886,-4.10498 0.916886,-4.11263 z" />
    <g
       style="fill:#bb0713;fill-opacity:1"
       id="pelo_claro"
       transform="matrix(4.4509269,0,0,3.8256975,-17.521539,-141.42895)">
      <path
         inkscape:connector-curvature="0"
         style="fill:#2b0000;fill-opacity:1"
         id="path2674"
         d="M 30.514,13.666 C 25.959,9.955 27.36,0.759 33.675,0.043 c 2.124,-0.241 6.496,0.494 7.331,2.911 0.293,0.848 -0.624,0.982 -1.533,1.226 -2.174,0.585 -4.039,2.081 -5.2,3.992 -0.592,0.972 -0.931,1.989 -1.113,3.109 -0.113,0.683 -0.052,2.955 -1.178,2.913 -0.875,-0.032 -1.466,-0.526 -1.468,-0.528 z" />
    </g>
    <path
       style="fill:#000000;fill-opacity:1;stroke:#af0000;stroke-width:0.02863904;stroke-opacity:0.55343502"
       d="m 122.62435,-48.283664 c -0.69046,-0.03166 -1.24483,-0.174009 -1.88392,-0.483761 -1.23132,-0.596797 -2.14996,-1.670118 -2.53821,-2.965565 -0.15388,-0.513448 -0.19543,-0.809292 -0.19728,-1.404657 -0.002,-0.63009 0.0372,-0.914931 0.19834,-1.437641 0.15414,-0.500385 0.31113,-0.834507 0.59446,-1.265122 1.36812,-2.079422 4.097,-2.797356 6.3157,-1.661583 0.47585,0.243596 0.84767,0.520348 1.26355,0.940459 0.68575,0.692736 1.10571,1.48064 1.31606,2.469078 0.0577,0.270855 0.0653,0.38565 0.0643,0.954809 -0.001,0.558743 -0.0103,0.686135 -0.0643,0.934465 -0.0974,0.444376 -0.22173,0.799546 -0.4225,1.207618 -0.75478,1.53411 -2.26393,2.566392 -3.96163,2.709824 -0.14121,0.0119 -0.44928,0.01286 -0.68462,0.0021 l 0,-1e-6 z"
       id="path3704"
       inkscape:connector-curvature="0" />
    <path
       style="fill:#000000;fill-opacity:1;stroke:#af0000;stroke-width:0.02933569;stroke-opacity:0.55343502"
       d="m 92.167959,-44.805269 c -1.188107,-0.152753 -2.206667,-0.625607 -3.037179,-1.409968 -2.432111,-2.296965 -1.831285,-6.100246 1.210069,-7.659857 0.434544,-0.222832 0.951423,-0.39443 1.540207,-0.511321 0.404332,-0.08028 1.503987,-0.07216 1.932807,0.01425 1.937583,0.39046 3.43019,1.668032 3.967429,3.395852 0.163021,0.524297 0.183978,0.682436 0.183143,1.382056 -8.52e-4,0.714835 -0.02056,0.8438 -0.224061,1.466035 -0.11078,0.338721 -0.433139,0.947065 -0.680306,1.283828 -0.24124,0.32869 -0.923539,0.966856 -1.268094,1.18607 -0.684454,0.435466 -1.362921,0.696061 -2.14421,0.823579 -0.383266,0.06255 -1.109954,0.07703 -1.479805,0.02947 z"
       id="path3706"
       inkscape:connector-curvature="0" />
    <path
       style="fill:#2b0000;fill-opacity:1"
       id="path2994"
       d="m 88.666731,-18.596356 c 0.51204,2.17491 1.06556,4.34088 1.63337,6.50207 0.65502,2.5354596 1.68419,4.9112095 3.01583,7.1559995 1.31849,2.09767 3.201965,3.69259 4.968655,5.38978985 1.71472,1.80745995 3.305694,3.72817995 5.350304,5.17277995 1.8349,1.48724 4.0601,2.34606 6.27585,3.09357 2.31275,0.85377 4.72445,1.3464997 7.1215,1.8868697 2.40847,0.44981 4.81364,0.9107 7.25042,1.17996 2.42983,0.3707 4.81254,0.0188 7.1825,-0.52225 2.50783,-0.66752 4.85965,-1.7844697 7.19316,-2.8975497 3.21934,-1.57289 2.5625,-1.28376 -5.14358,3.0318997 -0.38143,0.21361 0.74521,-0.45737 1.1155,-0.68977 1.0933,-0.68617 2.13777,-1.4303297 3.19301,-2.1727997 1.68214,-1.23515 3.23436,-2.63054 4.80362,-4.00277 1.69743,-1.18466 3.23957,-2.52646 4.59682,-4.08758995 1.44052,-1.67465985 2.54564,-3.59820985 3.76037,-5.43548985 1.33219,-1.91372 2.22378,-4.0713299 3.03457,-6.2440895 0.76121,-2.30752 0.99689,-4.7404 1.42959,-7.12177 0.45937,-2.415111 0.72805,-4.858851 1.17221,-7.276791 0.48809,-2.42342 0.99288,-4.84307 1.46974,-7.2691 0.32315,-1.59714 0.37098,-3.23856 0.85019,-4.80411 0.27126,-0.88618 0.53929,-1.43172 0.91023,-2.27972 0.93503,-2.31731 2.54829,-4.10538 4.52149,-5.58286 4.62913,-2.7565 9.24404,-5.73059 14.25572,-7.7865 2.2222,-1.10512 4.46662,-2.19936 6.78018,-3.10233 1.58566,-0.48604 0.78674,-0.27287 2.39655,-0.64028 0,0 -6.96005,5.32461 -6.96005,5.32461 l 0,0 c -1.55613,0.4319 -0.78423,0.188 -2.31538,0.73273 -2.2815,0.97275 -4.51822,2.047 -6.76012,3.10708 -1.18738,0.53425 -2.35252,1.10135 -3.50805,1.70187 -0.37434,0.19453 -1.48075,0.80855 -1.11779,0.59353 2.62122,-1.55282 9.23169,-5.35126 5.39757,-3.1468 -2.00839,1.30143 -3.76994,2.90437 -4.71908,5.15589 -0.49224,1.0482 -1.04028,2.11821 -1.3128,3.25229 -0.28757,1.1967 -0.26372,2.44856 -0.53873,3.64793 -0.46474,2.42813 -0.97371,4.8461 -1.47078,7.26717 -0.48062,2.41175 -0.72871,4.85645 -1.17312,7.27416 -0.46978,2.4132 -0.68293,4.878501 -1.36739,7.245451 -0.76648,2.23069 -1.64292,4.44675 -2.92065,6.4397595 -1.2798,1.80282 -2.29255,3.78948 -3.71224,5.48875 -1.24351,1.66482 -2.75682,3.14067005 -4.53182,4.2340098 -1.61478,1.37055 -3.15564,2.80941 -4.82284,4.11501 -3.84678,2.56536 1.81995,-1.24755 -2.08718,1.49763 -3.79535,2.66664 -7.91292,4.9145397 -12.05791,6.9715997 -2.37143,1.10165 -4.77263,2.18831 -7.33941,2.75249 -2.44031,0.46595 -4.8807,0.70013 -7.35445,0.29514 -2.44878,-0.31342 -4.87688,-0.76923 -7.29676,-1.25459 -2.42812,-0.53266 -4.84598,-1.11783 -7.18683,-1.96743 -2.27604,-0.82545 -4.532744,-1.74344 -6.411044,-3.31535 -2.018255,-1.5339097 -3.669565,-3.4378097 -5.414265,-5.2666597 -1.83244,-1.74148 -3.722869,-3.43775 -5.072138,-5.60660975 -1.368336,-2.31304005 -2.435945,-4.75991005 -3.138151,-7.36188005 -0.576342,-2.1234295 -1.090249,-4.2656095 -1.797393,-6.3510595 0,0 7.851002,-4.32389 7.851002,-4.32389 z"
       inkscape:connector-curvature="0" />
    <path
       inkscape:connector-curvature="0"
       style="fill:#ffff00;fill-opacity:1"
       id="cuerpo"
       d="m 165.78535,27.039417 c 0,0 -2.00291,0 -3.8812,0 0,-6.28944 0.0224,-26.09889576 0.0224,-31.3401035 0,0 0,0 0,-0.00785 l 0,-58.9539785 -0.0399,-35.812346 c -0.0176,-4.059065 -3.87231,-7.330035 -8.56359,-7.310905 -2.27442,0 -4.42421,0.77279 -6.02655,2.16152 -1.60678,1.39638 -2.47916,3.24419 -2.47027,5.206771 0,0.183646 0.009,11.710459 0.0224,21.408598 l -68.205971,0 c -9.262376,0 -16.771089,6.45395 -16.771089,14.403747 l 0,7.968925 -30.092706,0.01525 c -4.722433,0.0268 -8.523518,3.328356 -8.505711,7.360643 0.009,1.962581 0.907982,3.802736 2.523666,5.179992 1.624594,1.381078 3.774388,2.130912 6.044357,2.123261 0.262629,0 18.199838,-0.0079 30.025939,-0.01525 l 0,34.8367953 c 0,0.053546 -0.01756,0.099469 -0.01756,0.1491806 0,0.2678227 0.01756,25.4026261 0.01756,32.6217111 -1.873839,0 -3.881206,0 -3.881206,0 -4.811444,0.08034 -8.545775,3.427826 -8.465656,7.467763 0.09792,4.051409 4.005831,7.264995 8.701559,7.184653 l 12.257845,-0.0079 c 4.798097,-0.07651 8.554678,-3.427821 8.456758,-7.467754 l -0.01756,-24.113367 67.930017,0 -0.0314,24.113367 c -0.089,4.043758 3.66756,7.395072 8.46566,7.467754 l 12.24894,0.0079 c 4.71798,0.08034 8.617,-3.133244 8.71046,-7.184653 0.0935,-4.039937 -3.65866,-7.383595 -8.45676,-7.463937 z m -43.73033,-85.171475 c 3.1557,-0.382584 6.08441,1.507324 6.53395,4.223565 0.454,2.71242 -1.75366,5.233552 -4.90937,5.623773 -3.17351,0.382584 -6.09776,-1.51497 -6.54286,-4.223565 -0.454,-2.72007 1.75367,-5.241203 4.91828,-5.623773 z m -30.092706,3.668839 c 3.151253,-0.382585 6.084414,1.507328 6.52951,4.223573 0.453999,2.720066 -1.753668,5.229723 -4.904926,5.623774 -3.173508,0.390207 -6.097761,-1.507329 -6.542857,-4.223569 -0.449529,-2.720076 1.744765,-5.233553 4.918273,-5.623778 z m 7.633339,41.952591 c -5.430131,-3.328357 -14.051571,-12.628624 -10.953733,-18.944847 1.094931,-2.222734 3.502883,-0.841657 6.124477,0.286904 6.258003,2.746848 13.708853,3.098811 20.389683,1.365771 3.39606,-0.879911 6.29806,-2.306897 9.06654,-4.212089 1.68244,-1.166842 6.2758,-5.80741 8.80392,-3.710931 1.97622,1.641226 2.31449,3.676498 2.31449,3.695625 2.83523,15.56293 -19.59743,31.4089699 -35.745377,21.519544 z" />
    <path
       sodipodi:type="star"
       style="fill:#2b0000;fill-opacity:1"
       id="path3000"
       sodipodi:sides="3"
       sodipodi:cx="169.54608"
       sodipodi:cy="87.372955"
       sodipodi:r1="8.0786676"
       sodipodi:r2="7.5690217"
       sodipodi:arg1="-0.22679881"
       sodipodi:arg2="0.82039879"
       inkscape:flatsided="true"
       inkscape:rounded="0"
       inkscape:randomized="0"
       d="M 177.41786,85.55639 167.18338,95.098402 164.037,81.464074 z"
       transform="translate(17.988976,-143.60087)"
       inkscape:transform-center-x="1.3098155"
       inkscape:transform-center-y="0.14202372" />
  </g>
</svg>
