<?xml version="1.0" encoding="UTF-8" standalone="no"?>
<!-- Created with Inkscape (http://www.inkscape.org/) -->

<svg
   xmlns:dc="http://purl.org/dc/elements/1.1/"
   xmlns:cc="http://creativecommons.org/ns#"
   xmlns:rdf="http://www.w3.org/1999/02/22-rdf-syntax-ns#"
   xmlns:svg="http://www.w3.org/2000/svg"
   xmlns="http://www.w3.org/2000/svg"
   xmlns:sodipodi="http://sodipodi.sourceforge.net/DTD/sodipodi-0.dtd"
   xmlns:inkscape="http://www.inkscape.org/namespaces/inkscape"
   version="1.0"
   width="100"
   height="150"
   id="svg4502"
   style="display:inline"
   inkscape:version="0.48.2 r9819"
   sodipodi:docname="terron-glasses.svg">
  <metadata
     id="metadata20">
    <rdf:RDF>
      <cc:Work
         rdf:about="">
        <dc:format>image/svg+xml</dc:format>
        <dc:type
           rdf:resource="http://purl.org/dc/dcmitype/StillImage" />
        <dc:title></dc:title>
      </cc:Work>
    </rdf:RDF>
  </metadata>
  <sodipodi:namedview
     pagecolor="#ffffff"
     bordercolor="#666666"
     borderopacity="1"
     objecttolerance="10"
     gridtolerance="10"
     guidetolerance="10"
     inkscape:pageopacity="0"
     inkscape:pageshadow="2"
     inkscape:window-width="1280"
     inkscape:window-height="746"
     id="namedview18"
     showgrid="false"
     inkscape:zoom="1"
     inkscape:cx="87.270697"
     inkscape:cy="82.028931"
     inkscape:window-x="0"
     inkscape:window-y="26"
     inkscape:window-maximized="1"
     inkscape:current-layer="g4395" />
  <defs
     id="defs4504">
    <inkscape:perspective
       sodipodi:type="inkscape:persp3d"
       inkscape:vp_x="0 : 100 : 1"
       inkscape:vp_y="0 : 1000 : 0"
       inkscape:vp_z="200 : 100 : 1"
       inkscape:persp3d-origin="100 : 66.666667 : 1"
       id="perspective22" />
  </defs>
  <g
     transform="translate(-5.27302,97.234)"
     id="terron"
     style="display:inline">
    <g
       id="g4395">
      <path
         d="m 18.949539,-76.44904 c 6.24987,-9.3782 25.8502,-9.44675 29.397491,1.87986 1.19045,3.80717 1.09726,11.99628 -3.667541,14.21625 -1.67445,0.78042 -2.25464,-0.85951 -3.0603,-2.44671 -1.92997,-3.79926 -5.64562,-6.7812 -10.00759,-8.34994 -2.21556,-0.80151 -4.44315,-1.13635 -6.83607,-1.1469 -1.46401,-0.0105 -6.16869,0.75669 -6.44526,-1.31827 -0.21645,-1.6083 0.61927,-2.82902 0.61927,-2.83429 z"
         id="pelo_oscuro"
         style="fill:#00ff00;fill-opacity:1"
         inkscape:connector-curvature="0" />
      <g
         transform="matrix(3.0061869,0,0,2.6365469,-27.258536,-89.18093)"
         id="pelo_claro"
         style="fill:#ff0000;fill-opacity:1">
        <path
           d="M 30.514,13.666 C 25.959,9.955 27.36,0.759 33.675,0.043 c 2.124,-0.241 6.496,0.494 7.331,2.911 0.293,0.848 -0.624,0.982 -1.533,1.226 -2.174,0.585 -4.039,2.081 -5.2,3.992 -0.592,0.972 -0.931,1.989 -1.113,3.109 -0.113,0.683 -0.052,2.955 -1.178,2.913 -0.875,-0.032 -1.466,-0.526 -1.468,-0.528 z"
           id="path2674"
           style="fill:#ff0000;fill-opacity:1"
           inkscape:connector-curvature="0" />
      </g>
      <path
         inkscape:connector-curvature="0"
         id="path3704"
         d="m 67.38313,-24.490131 c -0.59442,-0.02562 -1.07169,-0.140842 -1.62187,-0.391555 -1.06004,-0.483046 -1.85091,-1.351792 -2.18515,-2.400325 -0.13248,-0.415584 -0.16824,-0.655039 -0.16984,-1.136927 -0.002,-0.509996 0.0321,-0.740545 0.17075,-1.163625 0.1327,-0.405011 0.26786,-0.67545 0.51177,-1.023989 1.17782,-1.683082 3.52712,-2.264177 5.43719,-1.344884 0.40966,0.197168 0.72978,0.42117 1.0878,0.761207 0.59036,0.560699 0.9519,1.198429 1.133,1.99847 0.0497,0.219229 0.0563,0.312144 0.0554,0.772821 -7.3e-4,0.452247 -0.008,0.555355 -0.0554,0.756354 -0.084,0.359677 -0.1909,0.647153 -0.36374,0.977444 -0.6498,1.241708 -1.94901,2.077236 -3.41058,2.19333 -0.12156,0.0096 -0.38678,0.01041 -0.58938,0.0018 l 0,0 z"
         style="fill:#000000;fill-opacity:1;stroke:#af0000;stroke-width:0.02390652;stroke-opacity:0.55343502" />
      <path
         inkscape:connector-curvature="0"
         id="path3706"
         d="m 46.780789,-21.705613 c -0.96144,-0.123485 -1.78568,-0.505742 -2.45775,-1.139821 -1.96811,-1.856875 -1.48191,-4.931457 0.97922,-6.19225 0.35164,-0.18014 0.76991,-0.318858 1.24636,-0.413355 0.32719,-0.06489 1.21706,-0.05834 1.564071,0.01153 1.56793,0.31565 2.77578,1.348442 3.21052,2.745218 0.13193,0.423843 0.14889,0.551682 0.14821,1.117257 -6.9e-4,0.577874 -0.0166,0.68213 -0.18131,1.185147 -0.0897,0.273823 -0.35051,0.76561 -0.55052,1.03785 -0.19522,0.265716 -0.74735,0.78161 -1.02617,0.958824 -0.55387,0.352032 -1.1029,0.562698 -1.735131,0.665782 -0.31015,0.05057 -0.89821,0.06227 -1.19749,0.02384 z"
         style="fill:#000000;fill-opacity:1;stroke:#af0000;stroke-width:0.02372705;stroke-opacity:0.55343502" />
      <path
         sodipodi:nodetypes="cccsccccccssccccccssccccccccccccccccccccccccccccccccc"
         d="m 96.54821,26.922023 c 0,0 -1.35278,0 -2.62139,0 0,-4.334479 0.0151,-17.986515 0.0151,-21.598585 0,0 0,0 0,-0.0054 l 0,-40.629175 -0.0269,-24.680713 c -0.0119,-2.79737 -2.61539,-5.05162 -5.78391,-5.03844 -1.53616,0 -2.98814,0.53259 -4.07037,1.48965 -1.08524,0.96234 -1.67445,2.23579 -1.66844,3.58834 0,0.12656 0.006,8.07047 0.0151,14.75411 l -46.066781,0 c -6.25588,0 -11.32731,4.447858 -11.32731,9.926601 l 0.30276,4.735023 -13.81547,1.070173 c -3.6437,1.986415 -4.99994,1.991035 -4.38239,6.13238 0.006,1.352548 0.008,1.40968 1.09898,2.35884 1.09726,0.951794 1.79235,1.619936 3.3255,1.614664 0.17738,0 5.48018,-0.308171 13.46761,-0.313268 l 0,24.008391 c 0,0.0369 -0.0119,0.06855 -0.0119,0.102811 0,0.184575 0.0119,17.506668 0.0119,22.481828 -1.26561,0 -2.6214,0 -2.6214,0 -3.24968,0.05537 -5.77187,2.362347 -5.71776,5.146541 0.0661,2.792099 2.70557,5.006799 5.8771,4.95143 l 8.27903,-0.0054 c 3.24067,-0.05273 5.77789,-2.362343 5.71175,-5.146534 l -0.0119,-16.618153 45.880401,0 -0.0212,16.618153 c -0.0601,2.786827 2.4771,5.096444 5.71777,5.146534 l 8.27302,0.0054 c 3.18656,0.05537 5.81998,-2.159331 5.88311,-4.95143 0.0631,-2.784194 -2.47109,-5.088535 -5.71176,-5.143905 z M 67.01244,-31.775402 c 2.13138,-0.263664 4.10945,1.038799 4.41308,2.910744 0.30663,1.869312 -1.18444,3.606795 -3.31582,3.875723 -2.14342,0.263664 -4.11848,-1.044069 -4.4191,-2.910744 -0.30663,-1.874585 1.18444,-3.612068 3.32184,-3.875723 z m -20.324821,2.528445 c 2.128381,-0.263665 4.109451,1.038802 4.410081,2.91075 0.30663,1.874582 -1.18444,3.604156 -3.312831,3.875723 -2.14341,0.268918 -4.11847,-1.038802 -4.41909,-2.910747 -0.30361,-1.874588 1.17843,-3.606795 3.32184,-3.875726 z m 5.155611,28.912368 c -3.66755,-2.293795 -9.490531,-8.703238 -7.398231,-13.056174 0.73953,-1.531837 2.36587,-0.580043 4.136521,0.197724 4.22669,1.893039 9.25905,2.1356 13.77133,0.941245 2.29372,-0.606406 4.25375,-1.589839 6.1236,-2.902835 1.13634,-0.80415 4.23872,-4.002279 5.94623,-2.557454 1.33475,1.13108 1.56322,2.533724 1.56322,2.546906 C 77.90084,-4.43971 62.74967,6.480868 51.84323,-0.334605 z"
         id="cuerpo"
         style="fill:#00ff00;fill-opacity:1"
         inkscape:connector-curvature="0" />
    </g>
  </g>
</svg>
